<svg id="Layer_1" data-name="Layer 1" xmlns="http://www.w3.org/2000/svg" viewBox="0 0 405.19 174.97"><defs><style>.cls-1{fill:#f2f2f2;}.cls-2,.cls-8{fill:#f58774;}.cls-3{fill:#89cbe1;}.cls-4{fill:#72c6dc;}.cls-5{fill:#b3dcea;}.cls-11,.cls-6{fill:#fff;}.cls-7{fill:#5b5c5c;}.cls-8{stroke:#5b5c5c;stroke-linecap:round;stroke-linejoin:round;stroke-width:3px;}.cls-9{fill:#19375b;}.cls-10{fill:#ea7060;}.cls-11{font-size:24.65px;}.cls-11,.cls-15{font-family:Glacial Indifference;font-weight:700;}.cls-12,.cls-13,.cls-14{font-size:23.46px;}.cls-12{letter-spacing:-1px;}.cls-13{letter-spacing:-3px;}.cls-15{font-size:11.66px;fill:#3d3d3d;}</style></defs><title>LOGO</title><path class="cls-1" d="M152.39,46.18v0.08L125.85,61.59h0V30.92l0.07,0Z"/><path class="cls-2" d="M152.39,46.26V76.91L125.85,61.59Z"/><path class="cls-3" d="M178.94,30.92V61.58h0L152.39,46.26V46.18l26.49-15.29Z"/><path class="cls-4" d="M178.93,61.58L152.39,76.91V46.26Z"/><path class="cls-5" d="M178.88,30.88L152.39,46.18V15.59Z"/><path class="cls-6" d="M152.39,15.59V46.18L125.91,30.88Z"/><path class="cls-7" d="M179.6,29.79l-0.07,0h0L153,14.46a1.3,1.3,0,0,0-1.3,0L125.25,29.75h0l-0.06,0a1.3,1.3,0,0,0-.65,1.13V61.58a1.3,1.3,0,0,0,.38.92h0L125,62.6l0,0,0,0h0l0,0,0.06,0L151.74,78a1.3,1.3,0,0,0,.48.16h0.17A1.3,1.3,0,0,0,153,78l26.54-15.32,0,0,0.1-.07,0,0a1.3,1.3,0,0,0,.5-1V30.92A1.31,1.31,0,0,0,179.6,29.79Zm-52.45,3.31,12,6.92,10.72,6.19L134.4,55.14l-7.25,4.19V33.11Zm50.49,0V59.33L154.93,46.22Zm-21.89,9.63-2.05,1.19V17.85l22.57,13Zm-4.66-24.88V43.92L149,42.73,128.51,30.88Zm0,30.67V74.65L128.46,61.59Zm23.33,14.17-12.18-7a1.3,1.3,0,1,0-1.3,2.26l10.88,6.28L153.7,74.65V48.52l22.63,13.06Z"/><path class="cls-7" d="M155,54.47l2.56,1.48a1.3,1.3,0,1,0,1.3-2.26l-2.56-1.48A1.3,1.3,0,1,0,155,54.47Z"/><path class="cls-8" d="M206.27,16.25c16.94,0,29.83,13.06,29.83,30s-12.8,30-29.83,30H188.44v-60h17.83Zm-0.79,47.83c10.15,0,17.12-7.85,17.12-17.83s-6.88-17.74-17.12-17.74h-4V64.08h4Z"/><path class="cls-9" d="M268.42,76.26H255.18v-48H238.06v-12h47.48v12H268.42v48Z"/><polygon class="cls-2" points="334.01 143.84 374.35 143.84 365.77 127.38 374.35 110.92 334.01 110.92 334.01 143.84"/><rect class="cls-2" x="47.17" y="94.46" width="309.9" height="32.92"/><polygon class="cls-10" points="334.01 127.38 334.01 143.84 357.89 127.38 334.01 127.38"/><polygon class="cls-2" points="71.17 143.84 30.84 143.84 39.42 127.38 30.84 110.92 71.17 110.92 71.17 143.84"/><polygon class="cls-10" points="71.17 127.38 71.17 143.84 47.3 127.38 71.17 127.38"/><text class="cls-11" transform="translate(99.7 119)">ONE <tspan class="cls-12" x="53.94" y="0">D</tspan><tspan class="cls-13" x="67.83" y="0">A</tspan><tspan class="cls-14" x="80.55" y="0">Y TRAINING</tspan></text><text class="cls-15" transform="translate(84.65 143.66)"></text><path class="cls-7" d="M147.51,55.42a2.43,2.43,0,0,0,2.43,0l12.39-7.13a2.43,2.43,0,0,0,0-4.22l-12.39-7.14A2.43,2.43,0,0,0,146.3,39V53.31A2.43,2.43,0,0,0,147.51,55.42Zm3.65-12.17,5.08,2.93-5.08,2.92V43.25Z"/><polygon class="cls-6" points="149.57 51.52 158.84 46.18 149.57 40.84 149.57 51.52"/></svg>
