<svg id="Layer_1" data-name="Layer 1" xmlns="http://www.w3.org/2000/svg" viewBox="0 0 173.37 195"><defs><style>.cls-1{fill:#f2f2f2;}.cls-2{fill:#f58774;}.cls-3{fill:#89cbe1;}.cls-4{fill:#72c6dc;}.cls-5{fill:#b3dcea;}.cls-6{fill:#fff;}.cls-7{fill:#5b5c5c;}</style></defs><title>POSDIG FROM ZERO TO HERO</title><path class="cls-1" d="M86.68,97.27v0.26l-81,46.75,0,0V50.74l0.2-.12Z"/><path class="cls-2" d="M86.68,97.53V191l-81-46.74Z"/><path class="cls-3" d="M167.67,50.74v93.52h0l-81-46.74V97.27l80.79-46.65Z"/><path class="cls-4" d="M167.65,144.27L86.68,191V97.53Z"/><path class="cls-5" d="M167.48,50.62L86.68,97.27V4Z"/><path class="cls-6" d="M86.68,4V97.27L5.89,50.62Z"/><path class="cls-7" d="M169.67,47.3l-0.2-.12h0L88.67,0.53a4,4,0,0,0-4,0L3.9,47.18h0l-0.19.11a4,4,0,0,0-2,3.45v93.52a4,4,0,0,0,1.17,2.81l0,0,0.3,0.26,0.13,0.1,0.07,0.06,0,0,0.12,0.07,0.17,0.11,81,46.74a4,4,0,0,0,4,0l81-46.75,0.1-.07,0.3-.2,0.08-.06a4,4,0,0,0,1.53-3.13V50.74A4,4,0,0,0,169.67,47.3ZM9.67,57.4L46.23,78.51,78.95,97.4,31.8,124.62,9.67,137.4v-80Zm154,0v80l-69.27-40ZM96.93,86.76l-6.26,3.62V10.87l68.85,39.75ZM82.7,10.87V90.38l-6.26-3.62L13.85,50.62Zm0,93.55v79.71l-69-39.85Zm71.16,43.21-37.15-21.45a4,4,0,1,0-4,6.89l33.17,19.15-55.25,31.9V104.42l69,39.85Z"/><path class="cls-7" d="M94.53,122.56l7.82,4.52a4,4,0,1,0,4-6.89l-7.82-4.52A4,4,0,0,0,94.53,122.56Z"/><path class="cls-7" d="M69.8,118.56a5.55,5.55,0,0,0,5.54,0l28.22-16.25a5.55,5.55,0,0,0,0-9.61L75.34,76.44A5.55,5.55,0,0,0,67,81.24v32.51A5.55,5.55,0,0,0,69.8,118.56Zm8.32-27.72L89.68,97.5l-11.57,6.66V90.84Z"/><polygon class="cls-6" points="74.47 109.66 95.59 97.5 74.47 85.33 74.47 109.66"/></svg>